<?xml version="1.0" encoding="UTF-8"?>
<svg id="Layer_2" data-name="Layer 2" xmlns="http://www.w3.org/2000/svg" viewBox="0 0 638.99 638.72">
  <defs>
    <style>
      .cls-1 {
        fill: #d2ce07;
      }

      .cls-1, .cls-2, .cls-3, .cls-4, .cls-5, .cls-6, .cls-7, .cls-8, .cls-9, .cls-10 {
        stroke-width: 0px;
      }

      .cls-2 {
        fill: #25bdca;
      }

      .cls-3 {
        fill: #f99e53;
      }

      .cls-4 {
        fill: #b2a900;
      }

      .cls-5 {
        fill: #f21c00;
      }

      .cls-6 {
        fill: #fcb87a;
      }

      .cls-7 {
        fill: #043e49;
      }

      .cls-8 {
        fill: #c91609;
      }

      .cls-9 {
        fill: #012025;
      }

      .cls-10 {
        fill: #f7d5bf;
      }
    </style>
  </defs>
  <g id="_Слой_1" data-name="Слой 1">
    <g>
      <g>
        <path class="cls-4" d="M319.5,181.86v137.37h-137.37v-121.19c0-8.93,7.25-16.17,16.17-16.17h121.19Z"/>
        <path class="cls-1" d="M456.86,198.03v121.19h-137.37v-137.37h121.19c8.93,0,16.17,7.25,16.17,16.17Z"/>
        <path class="cls-5" d="M319.5,319.22v137.36h-121.19c-8.92,0-16.17-7.25-16.17-16.17v-121.19h137.37Z"/>
        <path class="cls-8" d="M456.86,319.22v121.19c0,8.93-7.25,16.17-16.17,16.17h-121.19v-137.36h137.37Z"/>
        <path class="cls-1" d="M405.73,163.54c0-12.06-9.78-21.83-21.83-21.83s-21.84,9.78-21.84,21.83c0,7.68,3.98,14.43,9.97,18.32v26.31h23.72v-26.31c6-3.89,9.97-10.63,9.97-18.32Z"/>
        <path class="cls-1" d="M303.06,238.11c-12.06,0-21.83,9.78-21.83,21.83s9.77,21.84,21.83,21.84c7.68,0,14.42-3.98,18.32-9.98h26.31v-23.72h-26.31c-3.89-6-10.64-9.97-18.32-9.97Z"/>
        <path class="cls-4" d="M163.81,232.98c-12.06,0-21.83,9.77-21.83,21.83s9.77,21.83,21.83,21.83c7.68,0,14.43-3.98,18.32-9.97h26.31v-23.72h-26.31c-3.89-6-10.63-9.97-18.32-9.97Z"/>
        <path class="cls-4" d="M238.39,335.66c0,12.06,9.78,21.83,21.84,21.83s21.83-9.78,21.83-21.83c0-7.68-3.98-14.43-9.97-18.32v-26.31h-23.72v26.31c-6,3.89-9.97,10.64-9.97,18.32Z"/>
        <path class="cls-5" d="M233.25,474.91c0,12.06,9.78,21.83,21.83,21.83s21.84-9.77,21.84-21.83c0-7.68-3.98-14.42-9.98-18.32v-26.31h-23.72v26.31c-6,3.89-9.97,10.63-9.97,18.32Z"/>
        <path class="cls-5" d="M335.93,400.33c12.06,0,21.83-9.77,21.83-21.83s-9.77-21.84-21.83-21.84c-7.69,0-14.43,3.98-18.32,9.98h-26.31v23.72h26.31c3.89,6,10.63,9.97,18.32,9.97Z"/>
        <path class="cls-8" d="M475.18,405.46c12.06,0,21.83-9.78,21.83-21.83s-9.77-21.84-21.83-21.84c-7.68,0-14.43,3.98-18.32,9.97h-26.31v23.72h26.31c3.89,6,10.64,9.97,18.32,9.97Z"/>
        <path class="cls-8" d="M400.6,302.79c0-12.06-9.78-21.83-21.83-21.83s-21.83,9.77-21.83,21.83c0,7.68,3.98,14.43,9.97,18.32v26.31h23.72v-26.31c6-3.89,9.97-10.64,9.97-18.32Z"/>
      </g>
      <g>
        <path class="cls-3" d="M182.13,364.95v5.4l-10.12-.78s4.09-4.43,10.12-4.63Z"/>
        <path class="cls-6" d="M88.17,379.69h36.14l49.63-32.77h8.19v18.02c-3.49,1.05-6.95,2.54-10.12,4.63l62.63,4.82c3.62,4.58,2.89,14.53-7.95,14.5-5.03-.02-17.46.33-22.41-.05l-22.16,6.26v35.17s-29.87,1.45-61.67,0l-32.28.65v-51.24Z"/>
        <path class="cls-3" d="M182.13,395.11l-17.58,11.56s-1.93,13.01-13.26,15.9c0,0,12.05-.24,15.42-12.77l15.42-7.07v-7.63Z"/>
        <rect class="cls-2" x="88.17" y="376.96" width="29.39" height="56.69"/>
        <rect class="cls-9" y="373.11" width="102.87" height="64.4"/>
        <path class="cls-7" d="M89.14,432.21c-2.13,0-3.85-1.73-3.85-3.85s1.73-3.86,3.85-3.86,3.86,1.73,3.86,3.86-1.73,3.85-3.86,3.85Z"/>
        <path class="cls-7" d="M77.09,432.21c-2.13,0-3.85-1.73-3.85-3.85s1.72-3.86,3.85-3.86,3.86,1.73,3.86,3.86-1.73,3.85-3.86,3.85Z"/>
        <path class="cls-10" d="M226.7,381.25c-5.18,0-8.7-4.1-7.83-8.07l15.78,1.21c0,3.8-3.55,6.86-7.95,6.86Z"/>
      </g>
      <g>
        <path class="cls-3" d="M368.14,456.59h5.4l-.78,10.12s-4.43-4.1-4.62-10.12Z"/>
        <path class="cls-6" d="M382.88,550.55v-36.14l-32.76-49.63v-8.19h18.02c1.05,3.49,2.55,6.95,4.62,10.12l4.82-62.64c4.58-3.61,14.53-2.89,14.5,7.95-.02,5.03.33,17.46-.04,22.4l6.26,22.16h35.18s1.44,29.87,0,61.67l.64,32.28h-51.24Z"/>
        <path class="cls-3" d="M398.3,456.59l11.56,17.58s13.01,1.93,15.9,13.25c0,0-.24-12.04-12.77-15.42l-7.06-15.42h-7.63Z"/>
        <rect class="cls-2" x="380.16" y="521.15" width="56.69" height="29.39"/>
        <rect class="cls-9" x="376.3" y="535.85" width="64.4" height="102.87"/>
        <path class="cls-7" d="M435.4,549.58c0,2.13-1.73,3.85-3.85,3.85s-3.86-1.73-3.86-3.85,1.73-3.85,3.86-3.85,3.85,1.72,3.85,3.85Z"/>
        <path class="cls-7" d="M435.4,561.63c0,2.13-1.73,3.85-3.85,3.85s-3.86-1.73-3.86-3.85,1.73-3.86,3.86-3.86,3.85,1.73,3.85,3.86Z"/>
        <path class="cls-10" d="M384.44,412.02c0,5.18-4.1,8.7-8.08,7.82l1.22-15.77c3.8,0,6.86,3.56,6.86,7.95Z"/>
      </g>
      <g>
        <path class="cls-3" d="M456.86,277.81v-5.41l10.12.78s-4.1,4.43-10.12,4.63Z"/>
        <path class="cls-6" d="M550.82,263.07h-36.14l-49.63,32.77h-8.19v-18.02c3.49-1.05,6.95-2.55,10.12-4.63l-62.64-4.82c-3.62-4.58-2.89-14.53,7.95-14.5,5.03.02,17.46-.33,22.41.05l22.16-6.26v-35.17s29.88-1.45,61.67,0l32.28-.64v51.23Z"/>
        <path class="cls-3" d="M456.86,247.65l17.59-11.56s1.93-13.01,13.25-15.9c0,0-12.05.24-15.42,12.77l-15.42,7.07v7.63Z"/>
        <rect class="cls-2" x="521.43" y="209.1" width="29.39" height="56.69"/>
        <rect class="cls-9" x="536.12" y="205.25" width="102.87" height="64.4"/>
        <path class="cls-7" d="M549.86,210.55c2.13,0,3.85,1.73,3.85,3.85s-1.73,3.85-3.85,3.85-3.85-1.73-3.85-3.85,1.72-3.85,3.85-3.85Z"/>
        <path class="cls-7" d="M561.9,210.55c2.13,0,3.86,1.73,3.86,3.85s-1.73,3.85-3.86,3.85-3.85-1.73-3.85-3.85,1.73-3.85,3.85-3.85Z"/>
        <path class="cls-10" d="M412.29,261.51c5.18,0,8.7,4.1,7.83,8.07l-15.78-1.21c0-3.8,3.55-6.86,7.95-6.86Z"/>
      </g>
      <g>
        <path class="cls-3" d="M284.03,182.13h-5.4l.77-10.12s4.43,4.1,4.63,10.12Z"/>
        <path class="cls-6" d="M269.28,88.17v36.14l32.77,49.63v8.19h-18.02c-1.05-3.49-2.55-6.95-4.63-10.12l-4.81,62.64c-4.58,3.61-14.53,2.89-14.51-7.95.02-5.03-.33-17.46.05-22.4l-6.27-22.16h-35.17s-1.45-29.87,0-61.67l-.65-32.28h51.24Z"/>
        <path class="cls-3" d="M253.86,182.13l-11.56-17.58s-13.01-1.93-15.91-13.25c0,0,.25,12.04,12.77,15.42l7.06,15.42h7.63Z"/>
        <rect class="cls-2" x="215.31" y="88.17" width="56.69" height="29.39"/>
        <rect class="cls-9" x="211.46" width="64.4" height="102.87"/>
        <path class="cls-7" d="M216.76,89.14c0-2.13,1.73-3.85,3.85-3.85s3.86,1.72,3.86,3.85-1.73,3.86-3.86,3.86-3.85-1.73-3.85-3.86Z"/>
        <path class="cls-7" d="M216.76,77.09c0-2.13,1.73-3.86,3.85-3.86s3.86,1.73,3.86,3.86-1.73,3.86-3.86,3.86-3.85-1.73-3.85-3.86Z"/>
        <path class="cls-10" d="M267.72,226.7c0-5.18,4.1-8.7,8.07-7.82l-1.21,15.78c-3.8,0-6.86-3.56-6.86-7.95Z"/>
      </g>
    </g>
  </g>
</svg>