<?xml version="1.0" encoding="UTF-8"?>
<svg id="Layer_2" data-name="Layer 2" xmlns="http://www.w3.org/2000/svg" xmlns:xlink="http://www.w3.org/1999/xlink" viewBox="0 0 226 266.33">
  <defs>
    <style>
      .cls-1 {
        fill: url(#linear-gradient);
        stroke-width: 0px;
      }
    </style>
    <linearGradient id="linear-gradient" x1="-20.17" y1="37.84" x2="192.66" y2="250.67" gradientTransform="translate(0 284) scale(1 -1)" gradientUnits="userSpaceOnUse">
      <stop offset="0" stop-color="#76c8ac"/>
      <stop offset="1" stop-color="#372f91"/>
    </linearGradient>
  </defs>
  <g id="Layer_2-2" data-name="Layer 2">
    <path class="cls-1" d="M31.29,159.53c1.65-8.13,5.19-15.57,10.15-21.84,9.51-12,24.21-19.7,40.7-19.7h143.86v-4.04c0-2-.07-3.99-.17-5.96-.54-9.8-2.3-19.29-5.16-28.31C206.66,35.25,166.41,2.23,117.97.11c-1.28-.06-2.56-.1-3.85-.11h-2.05c-.3,0-.61.02-.92.02-.52,0-1.02.02-1.54.03h-.06c-.5,0-.99.03-1.49.05-1.16.05-2.32.1-3.47.19-.79.06-1.58.12-2.36.2h-.03c-.1,0-.21.02-.31.03-.5.05-1,.1-1.5.16-.47.05-.93.11-1.39.17-.36.04-.72.08-1.07.14-.55.06-1.1.14-1.64.22-.34.05-.67.1-1,.16-.76.12-1.51.24-2.27.38-.49.08-.98.17-1.47.26-2.28.44-4.53.94-6.76,1.53-.8.21-1.6.42-2.39.65-.3.09-.6.17-.9.26-.2.06-.4.12-.61.18-.47.14-.95.28-1.41.43-.68.21-1.35.43-2.03.65-1.14.38-2.27.78-3.4,1.2-.14.05-.28.11-.43.16-.53.2-1.06.39-1.59.59C38.86,20.53,12.83,48.72,3.56,84.74h0C1.24,93.78,0,103.25,0,113,0,121.37.91,129.63,2.71,137.69c.59,2.66,1.28,5.29,2.07,7.89-3.09,7.3-4.78,15.33-4.78,23.75v97l20.26-13.51,10-6.66,31.15-20.77c6.29-4.2,14.1-5.48,21.4-3.46,9.73,2.69,19.85,4.06,30.19,4.06,48.72,0,91.56-31.07,106.99-76.55.92-2.69,1.73-5.42,2.45-8.2h-10.36c-12.55,44.15-52.92,74.75-99.08,74.75-6.08,0-12.09-.52-17.97-1.55-4.28-.75-8.49-1.77-12.62-3.05-.04,0-.08-.02-.12-.03-7.62-2.37-15.9-1.3-22.54,3.13l-29.49,19.66v-64.26c0-3.55.36-7.01,1.03-10.36h0ZM194.43,107.99H61.34c-9.46,0-18.41,2.14-26.4,5.96-9.15,4.37-17.05,10.95-23,19.04-1.29-6.54-1.94-13.23-1.94-19.99,0-48.11,33.17-88.62,77.83-99.88.15-.04.31-.08.46-.11.12-.03.24-.06.35-.09.03,0,.07-.02.1-.02.99-.24,1.99-.46,2.99-.67.12-.02.24-.05.36-.08.32-.07.63-.14.95-.2.07-.01.14-.03.21-.04,1.35-.26,2.71-.51,4.08-.72.81-.12,1.61-.24,2.42-.34.36-.05.71-.08,1.07-.13.46-.05.92-.11,1.38-.16,50.18,5.17,89.77,46.51,92.22,97.43h.01Z"/>
  </g>
</svg>