<?xml version="1.0" encoding="UTF-8"?>
<svg id="Layer_2" data-name="Layer 2" xmlns="http://www.w3.org/2000/svg" viewBox="0 0 600.5 266.3">
  <defs>
    <style>
      .cls-1 {
        fill: #fff;
        stroke-width: 0px;
      }
    </style>
  </defs>
  <g id="Layer_2-2" data-name="Layer 2">
    <g id="Layer_1-2" data-name="Layer 1-2">
      <path class="cls-1" d="M31.3,159.5c1.7-8.1,5.2-15.6,10.2-21.8,9.5-12,24.2-19.7,40.7-19.7h143.8v-4c0-2-.1-4-.2-6-.5-9.8-2.3-19.3-5.2-28.3C206.7,35.2,166.4,2.2,118,.1c-1.3-.1-2.6-.1-3.8-.1h-6c-1.2,0-2.3.1-3.5.2-.8.1-1.6.1-2.4.2h-.3c-.5.1-1,.1-1.5.2s-.9.1-1.4.2c-.4,0-.7.1-1.1.1-.6.1-1.1.1-1.6.2-.3,0-.7.1-1,.2-.8.1-1.5.2-2.3.4-.5.1-1,.2-1.5.3-2.3.4-4.5.9-6.8,1.5-.8.2-1.6.5-2.4.7-.3.1-.6.2-.9.3-.2.1-.4.1-.6.2-.5.1-.9.3-1.4.4-.7.2-1.3.4-2,.7-1.1.4-2.3.8-3.4,1.2-.2,0-.3,0-.5.1-.5.2-1.1.4-1.6.6C38.9,20.5,12.8,48.7,3.6,84.7h0c-2.4,9.1-3.6,18.5-3.6,28.3,0,8.4.9,16.6,2.7,24.7.6,2.7,1.3,5.3,2.1,7.9-3.1,7.3-4.8,15.3-4.8,23.7v97l20.3-13.5,10-6.7,31.1-20.8c6.3-4.2,14.1-5.5,21.4-3.5,9.7,2.7,19.8,4.1,30.2,4.1,48.7,0,91.6-31.1,107-76.6.9-2.7,1.7-5.4,2.4-8.2h-10.4c-12.5,44.3-52.8,74.9-99,74.9-6.1,0-12.1-.5-18-1.6-4.3-.8-8.5-1.8-12.6-3.1h-.1c-7.6-2.4-15.9-1.3-22.5,3.1l-29.5,19.7v-64.3c0-3.5.3-6.9,1-10.3h0ZM194.4,108H61.3c-9.5,0-18.4,2.1-26.4,6-9.1,4.4-17,10.9-23,19-1.3-6.5-1.9-13.2-1.9-20,0-48.1,33.2-88.6,77.8-99.9.2,0,.3-.1.5-.1.1,0,.2-.1.3-.1h.1c1-.2,2-.5,3-.7.1,0,.2-.1.4-.1.3-.1.6-.1.9-.2h.2c1.3-.3,2.7-.5,4.1-.7l2.4-.3c.4-.1.7-.1,1.1-.1.5-.1.9-.1,1.4-.2,50.2,5.1,89.8,46.5,92.2,97.4h0Z"/>
      <g>
        <path class="cls-1" d="M308.8,63.1v18.7h22v8.5h-22v19.5h24.8v8.5h-35.2v-63.7h35.2v8.5h-24.8Z"/>
        <path class="cls-1" d="M401.2,54.7l-23.9,63.7h-12.1l-24-63.7h11.2l18.9,53,19-53h10.9Z"/>
        <path class="cls-1" d="M440,105.4h-26.7l-4.6,13h-10.9l22.8-63.8h12.1l22.8,63.8h-11l-4.5-13h0ZM437.1,96.9l-10.4-29.6-10.5,29.6h20.9Z"/>
      </g>
      <g>
        <path class="cls-1" d="M340.5,169.8c-1.5,2.9-4,5.2-7.3,7-3.4,1.8-7.7,2.7-12.9,2.7h-11.5v25.8h-10.4v-63.6h22c4.9,0,9,.8,12.4,2.5s5.9,3.9,7.6,6.8c1.7,2.9,2.5,6.1,2.5,9.6-.1,3.3-.9,6.3-2.4,9.2h0ZM329.1,168.3c2-1.8,2.9-4.4,2.9-7.6,0-6.9-3.9-10.4-11.8-10.4h-11.5v20.7h11.5c4,0,7-.9,8.9-2.7h0Z"/>
        <path class="cls-1" d="M363.2,150.1v18.7h22v8.5h-22v19.5h24.7v8.5h-35.1v-63.7h35.1v8.5h-24.7Z"/>
        <path class="cls-1" d="M433.7,205.3l-14.6-25.4h-8v25.4h-10.4v-63.6h22c4.9,0,9,.9,12.4,2.6,3.4,1.7,5.9,4,7.6,6.9s2.5,6.1,2.5,9.6c0,4.1-1.2,7.9-3.6,11.3-2.4,3.4-6.1,5.7-11.1,6.9l15.7,26.4-12.5-.1h0ZM411.1,171.5h11.5c3.9,0,6.9-1,8.8-2.9,2-1.9,3-4.6,3-7.9s-1-5.9-2.9-7.7c-2-1.9-4.9-2.8-8.9-2.8h-11.5v21.3h0Z"/>
        <path class="cls-1" d="M465.8,196.9h21.5v8.4h-31.9v-63.6h10.4v55.2Z"/>
        <path class="cls-1" d="M537.5,192.3h-26.6l-4.6,13h-10.9l22.8-63.7h12.1l22.8,63.7h-11l-4.6-13ZM534.6,183.8l-10.3-29.6-10.4,29.6h20.7Z"/>
        <path class="cls-1" d="M600.5,141.7l-21,40.5v23.1h-10.4v-23.1l-21.1-40.5h11.6l14.7,31.2,14.7-31.2h11.5Z"/>
      </g>
    </g>
  </g>
</svg>