<?xml version="1.0" encoding="UTF-8"?>
<svg id="Layer_2" data-name="Layer 2" xmlns="http://www.w3.org/2000/svg" xmlns:xlink="http://www.w3.org/1999/xlink" viewBox="0 0 600.55 281.03">
  <defs>
    <style>
      .cls-1 {
        fill: url(#linear-gradient);
        stroke-width: 0px;
      }
    </style>
    <linearGradient id="linear-gradient" x1="81.19" y1="-15.07" x2="447.1" y2="350.83" gradientUnits="userSpaceOnUse">
      <stop offset="0" stop-color="#76c8ac"/>
      <stop offset="1" stop-color="#372f91"/>
    </linearGradient>
  </defs>
  <g id="Layer_2-2" data-name="Layer 2">
    <path class="cls-1" d="M31.29,159.53c1.65-8.13,5.19-15.57,10.15-21.84,9.51-12,24.21-19.7,40.7-19.7h143.86v-4.04c0-2-.07-3.99-.17-5.96-.54-9.8-2.3-19.29-5.16-28.31C206.66,35.25,166.41,2.23,117.97.11c-1.28-.06-2.56-.1-3.85-.11h-2.05c-.3,0-.61.02-.92.02-.52,0-1.02.02-1.54.03h-.06c-.5,0-.99.03-1.49.05-1.16.05-2.32.1-3.47.19-.79.06-1.58.12-2.36.2h-.03c-.1,0-.21.02-.31.03-.5.05-1,.1-1.5.16-.47.05-.93.11-1.39.17-.36.04-.72.08-1.07.14-.55.06-1.1.14-1.64.22-.34.05-.67.1-1,.16-.76.12-1.51.24-2.27.38-.49.08-.98.17-1.47.26-2.28.44-4.53.94-6.76,1.53-.8.21-1.6.42-2.39.65-.3.09-.6.17-.9.26-.2.06-.4.12-.61.18-.47.14-.95.28-1.41.43-.68.21-1.35.43-2.03.65-1.14.38-2.27.78-3.4,1.2-.14.05-.28.11-.43.16-.53.2-1.06.39-1.59.59C38.86,20.53,12.83,48.72,3.56,84.74h0C1.24,93.78,0,103.25,0,113,0,121.37.91,129.63,2.71,137.69c.59,2.66,1.28,5.29,2.07,7.89-3.09,7.3-4.78,15.33-4.78,23.75v97l20.26-13.51,10-6.66,31.15-20.77c6.29-4.2,14.1-5.48,21.4-3.46,9.73,2.69,19.85,4.06,30.19,4.06,48.72,0,91.56-31.07,106.99-76.55.92-2.69,1.73-5.42,2.45-8.2h-10.36c-12.55,44.15-52.92,74.75-99.08,74.75-6.08,0-12.09-.52-17.97-1.55-4.28-.75-8.49-1.77-12.62-3.05-.04,0-.08-.02-.12-.03-7.62-2.37-15.9-1.3-22.54,3.13l-29.49,19.66v-64.26c0-3.55.36-7.01,1.03-10.36h0ZM194.43,107.99H61.34c-9.46,0-18.41,2.14-26.4,5.96-9.15,4.37-17.05,10.95-23,19.04-1.29-6.54-1.94-13.23-1.94-19.99,0-48.11,33.17-88.62,77.83-99.88.15-.04.31-.08.46-.11.12-.03.24-.06.35-.09.03,0,.07-.02.1-.02.99-.24,1.99-.46,2.99-.67.12-.02.24-.05.36-.08.32-.07.63-.14.95-.2.07-.01.14-.03.21-.04,1.35-.26,2.71-.51,4.08-.72.81-.12,1.61-.24,2.42-.34.36-.05.71-.08,1.07-.13.46-.05.92-.11,1.38-.16,50.18,5.17,89.77,46.51,92.22,97.43h.01ZM308.75,63.13v18.7h22v8.52h-22v19.52h24.75v8.52h-35.19v-63.79h35.19v8.52h-24.75ZM401.22,54.7l-23.92,63.69h-12.1l-24.01-63.69h11.18l18.88,52.97,18.97-52.97h11ZM440.02,105.38h-26.67l-4.58,13.01h-10.91l22.82-63.79h12.1l22.82,63.79h-11l-4.58-13.01h0ZM437.09,96.86l-10.36-29.6-10.45,29.6h20.81ZM340.49,169.79c-1.53,2.87-3.97,5.2-7.32,7-3.36,1.8-7.66,2.7-12.9,2.7h-11.53v25.81h-10.43v-63.6h21.96c4.88,0,9.01.84,12.4,2.52,3.39,1.68,5.92,3.95,7.59,6.82,1.68,2.87,2.52,6.07,2.52,9.61,0,3.24-.76,6.28-2.29,9.15h0ZM329.14,168.28c1.95-1.8,2.93-4.35,2.93-7.64,0-6.95-3.94-10.43-11.8-10.43h-11.53v20.77h11.53c3.97,0,6.92-.9,8.88-2.7h-.01ZM363.18,150.11v18.67h21.96v8.51h-21.96v19.49h24.71v8.51h-35.14v-63.69h35.14v8.51h-24.71ZM433.74,205.3l-14.64-25.44h-7.96v25.44h-10.43v-63.6h21.96c4.88,0,9.01.85,12.4,2.56,3.39,1.71,5.92,4,7.59,6.86,1.68,2.87,2.52,6.07,2.52,9.61,0,4.15-1.21,7.92-3.62,11.3-2.41,3.39-6.12,5.69-11.12,6.91l15.74,26.36h-12.45.01ZM411.14,171.53h11.53c3.9,0,6.85-.98,8.83-2.93,1.98-1.95,2.97-4.58,2.97-7.87s-.98-5.87-2.93-7.73c-1.95-1.86-4.91-2.79-8.88-2.79h-11.53v21.32h.01ZM465.8,196.88h21.51v8.42h-31.94v-63.6h10.43v55.18ZM537.52,192.3h-26.63l-4.58,12.99h-10.89l22.79-63.69h12.08l22.79,63.69h-10.98l-4.58-12.99ZM534.59,183.79l-10.34-29.56-10.43,29.56h20.77ZM600.55,141.69l-21.05,40.54v23.06h-10.43v-23.06l-21.14-40.54h11.62l14.73,31.21,14.73-31.21h11.54ZM296.99,245.23c1.17-2.18,2.8-3.88,4.88-5.08,2.08-1.2,4.47-1.81,7.15-1.81,3.48,0,6.34.84,8.6,2.53,2.25,1.69,3.74,4.03,4.47,7.02h-5.06c-.48-1.72-1.42-3.08-2.81-4.08-1.39-1-3.12-1.5-5.19-1.5-2.68,0-4.85.92-6.5,2.76s-2.48,4.45-2.48,7.82.83,6.04,2.48,7.9c1.65,1.86,3.82,2.79,6.5,2.79,2.07,0,3.79-.48,5.16-1.45,1.38-.96,2.32-2.34,2.84-4.13h5.06c-.76,2.89-2.27,5.21-4.54,6.94-2.27,1.74-5.11,2.61-8.52,2.61-2.68,0-5.07-.6-7.15-1.81-2.08-1.2-3.71-2.91-4.88-5.11-1.17-2.2-1.76-4.78-1.76-7.74s.58-5.48,1.76-7.67h-.01ZM332.17,265.75c-2.15-1.2-3.84-2.92-5.06-5.14s-1.83-4.79-1.83-7.72.63-5.45,1.88-7.67c1.26-2.22,2.97-3.92,5.14-5.11s4.59-1.78,7.28-1.78,5.11.59,7.28,1.78,3.88,2.88,5.14,5.08,1.88,4.77,1.88,7.69-.65,5.5-1.94,7.72c-1.29,2.22-3.04,3.93-5.24,5.14-2.2,1.21-4.65,1.81-7.33,1.81s-5.05-.6-7.2-1.81h0ZM344.12,262.24c1.48-.79,2.68-1.98,3.59-3.56s1.37-3.51,1.37-5.78-.45-4.2-1.34-5.78c-.9-1.58-2.07-2.76-3.51-3.54s-3.01-1.16-4.7-1.16-3.3.39-4.72,1.16c-1.43.77-2.57,1.95-3.43,3.54-.86,1.58-1.29,3.51-1.29,5.78s.42,4.25,1.26,5.83,1.97,2.76,3.38,3.54c1.41.77,2.96,1.16,4.65,1.16s3.27-.4,4.75-1.19h0ZM358.78,245.23c1.17-2.18,2.78-3.88,4.83-5.08s4.33-1.81,6.84-1.81,4.63.53,6.45,1.6,3.18,2.41,4.08,4.03v-5.16h4.75v28.29h-4.75v-5.27c-.93,1.65-2.32,3.02-4.16,4.1-1.84,1.08-3.98,1.63-6.43,1.63s-4.78-.62-6.81-1.86-3.63-2.98-4.8-5.21c-1.17-2.24-1.76-4.78-1.76-7.64s.58-5.43,1.76-7.62h0ZM379.69,247.32c-.86-1.58-2.02-2.8-3.48-3.64-1.46-.84-3.07-1.27-4.83-1.27s-3.36.41-4.8,1.24c-1.45.83-2.6,2.03-3.46,3.61s-1.29,3.44-1.29,5.58.43,4.05,1.29,5.65,2.01,2.82,3.46,3.67c1.45.84,3.05,1.27,4.8,1.27s3.36-.42,4.83-1.27c1.46-.84,2.62-2.06,3.48-3.67s1.29-3.47,1.29-5.6-.43-3.99-1.29-5.58h0ZM392.39,245.23c1.17-2.18,2.8-3.88,4.88-5.08,2.08-1.2,4.47-1.81,7.15-1.81,3.48,0,6.34.84,8.6,2.53,2.25,1.69,3.74,4.03,4.47,7.02h-5.06c-.48-1.72-1.42-3.08-2.81-4.08-1.39-1-3.12-1.5-5.19-1.5-2.68,0-4.85.92-6.5,2.76s-2.48,4.45-2.48,7.82.83,6.04,2.48,7.9c1.65,1.86,3.82,2.79,6.5,2.79,2.07,0,3.79-.48,5.16-1.45,1.38-.96,2.32-2.34,2.84-4.13h5.06c-.76,2.89-2.27,5.21-4.54,6.94-2.27,1.74-5.11,2.61-8.52,2.61-2.68,0-5.07-.6-7.15-1.81-2.08-1.2-3.71-2.91-4.88-5.11-1.17-2.2-1.76-4.78-1.76-7.74s.58-5.48,1.76-7.67h-.01ZM442.26,239.66c1.72.91,3.07,2.28,4.05,4.1.98,1.82,1.47,4.04,1.47,6.66v16.68h-4.65v-16c0-2.82-.71-4.98-2.12-6.48s-3.34-2.25-5.78-2.25-4.45.77-5.91,2.32-2.19,3.8-2.19,6.76v15.64h-4.7v-38.2h4.7v13.94c.93-1.45,2.21-2.56,3.85-3.36,1.63-.79,3.47-1.19,5.5-1.19,2.13,0,4.06.46,5.78,1.37h0ZM454.34,233.28c-.62-.62-.93-1.38-.93-2.27s.31-1.65.93-2.27c.62-.62,1.38-.93,2.27-.93s1.59.31,2.19.93.9,1.38.9,2.27-.3,1.65-.9,2.27c-.6.62-1.33.93-2.19.93s-1.65-.31-2.27-.93ZM458.88,238.8v28.29h-4.7v-28.29h4.7ZM487.74,241.41c2.13,2.08,3.2,5.09,3.2,9.01v16.68h-4.65v-16c0-2.82-.71-4.98-2.12-6.48s-3.34-2.25-5.78-2.25-4.45.77-5.91,2.32-2.19,3.8-2.19,6.76v15.64h-4.7v-28.29h4.7v4.03c.93-1.45,2.19-2.56,3.79-3.36,1.6-.79,3.36-1.19,5.29-1.19,3.44,0,6.23,1.04,8.36,3.12h0ZM515.44,239.94c1.84,1.07,3.21,2.41,4.1,4.03v-5.16h4.75v28.91c0,2.58-.55,4.88-1.65,6.89-1.1,2.01-2.68,3.59-4.72,4.72-2.05,1.14-4.43,1.7-7.15,1.7-3.72,0-6.82-.88-9.29-2.63-2.48-1.76-3.94-4.15-4.39-7.18h4.65c.52,1.72,1.58,3.11,3.2,4.16,1.62,1.05,3.56,1.57,5.83,1.57,2.58,0,4.69-.81,6.32-2.43s2.45-3.89,2.45-6.82v-5.94c-.93,1.65-2.31,3.03-4.13,4.13-1.83,1.1-3.96,1.65-6.4,1.65s-4.79-.62-6.84-1.86-3.66-2.98-4.83-5.21c-1.17-2.24-1.76-4.78-1.76-7.64s.58-5.43,1.76-7.62c1.17-2.18,2.78-3.88,4.83-5.08s4.33-1.81,6.84-1.81,4.59.53,6.43,1.6v.02ZM518.25,247.32c-.86-1.58-2.02-2.8-3.48-3.64-1.46-.84-3.07-1.27-4.83-1.27s-3.36.41-4.8,1.24c-1.45.83-2.6,2.03-3.46,3.61s-1.29,3.44-1.29,5.58.43,4.05,1.29,5.65,2.01,2.82,3.46,3.67c1.45.84,3.05,1.27,4.8,1.27s3.36-.42,4.83-1.27c1.46-.84,2.62-2.06,3.48-3.67s1.29-3.47,1.29-5.6-.43-3.99-1.29-5.58h0Z"/>
  </g>
</svg>